<svg width="40" height="40" viewBox="0 0 40 40" fill="none" xmlns="http://www.w3.org/2000/svg">
<path fill-rule="evenodd" clip-rule="evenodd" d="M20 40C31.0457 40 40 31.0457 40 20C40 8.9543 31.0457 0 20 0C8.9543 0 0 8.9543 0 20C0 31.0457 8.9543 40 20 40ZM6.34 24L6.844 22.512H9.988L10.492 24H12.664L9.616 15.576H7.24L4.192 24H6.34ZM8.416 17.844L9.46 20.928H7.384L8.416 17.844ZM16.4717 17.496C16.1197 17.688 15.8437 17.94 15.6437 18.252V17.304H13.5917V27.192H15.6437V23.064C15.8437 23.368 16.1197 23.616 16.4717 23.808C16.8317 24 17.2437 24.096 17.7077 24.096C18.2597 24.096 18.7597 23.956 19.2077 23.676C19.6557 23.388 20.0077 22.984 20.2637 22.464C20.5277 21.936 20.6597 21.328 20.6597 20.64C20.6597 19.952 20.5277 19.348 20.2637 18.828C20.0077 18.308 19.6557 17.908 19.2077 17.628C18.7597 17.348 18.2597 17.208 17.7077 17.208C17.2357 17.208 16.8237 17.304 16.4717 17.496ZM18.1397 19.44C18.4277 19.728 18.5717 20.128 18.5717 20.64C18.5717 21.152 18.4277 21.56 18.1397 21.864C17.8517 22.16 17.5037 22.308 17.0957 22.308C16.6877 22.308 16.3397 22.16 16.0517 21.864C15.7717 21.568 15.6317 21.164 15.6317 20.652C15.6317 20.14 15.7717 19.736 16.0517 19.44C16.3397 19.144 16.6877 18.996 17.0957 18.996C17.5117 18.996 17.8597 19.144 18.1397 19.44ZM28.0122 21.144C28.0362 20.936 28.0482 20.736 28.0482 20.544C28.0482 19.872 27.9042 19.284 27.6162 18.78C27.3362 18.276 26.9442 17.888 26.4402 17.616C25.9362 17.344 25.3602 17.208 24.7122 17.208C24.0482 17.208 23.4602 17.348 22.9482 17.628C22.4362 17.908 22.0362 18.308 21.7482 18.828C21.4682 19.348 21.3282 19.956 21.3282 20.652C21.3282 21.348 21.4722 21.956 21.7602 22.476C22.0482 22.996 22.4482 23.396 22.9602 23.676C23.4722 23.956 24.0562 24.096 24.7122 24.096C25.2562 24.096 25.7482 23.996 26.1882 23.796C26.6282 23.596 26.9922 23.32 27.2802 22.968C27.5762 22.616 27.7802 22.22 27.8922 21.78H25.7082C25.5082 22.212 25.1522 22.428 24.6402 22.428C24.2962 22.428 24.0042 22.32 23.7642 22.104C23.5322 21.88 23.4002 21.56 23.3682 21.144H28.0122ZM25.5882 19.164C25.8282 19.372 25.9482 19.652 25.9482 20.004H23.3802C23.4362 19.636 23.5802 19.352 23.8122 19.152C24.0522 18.952 24.3442 18.852 24.6882 18.852C25.0482 18.852 25.3482 18.956 25.5882 19.164ZM30.2947 23.796C30.7507 23.996 31.2707 24.096 31.8547 24.096C32.3987 24.096 32.8747 24.008 33.2827 23.832C33.6987 23.656 34.0147 23.416 34.2307 23.112C34.4547 22.8 34.5667 22.448 34.5667 22.056C34.5587 21.592 34.4347 21.224 34.1947 20.952C33.9627 20.672 33.6907 20.472 33.3787 20.352C33.0667 20.224 32.6627 20.096 32.1667 19.968C31.7347 19.872 31.4147 19.776 31.2067 19.68C31.0067 19.584 30.9067 19.44 30.9067 19.248C30.9067 19.088 30.9707 18.964 31.0987 18.876C31.2267 18.78 31.4107 18.732 31.6507 18.732C31.9307 18.732 32.1547 18.8 32.3227 18.936C32.4987 19.072 32.6027 19.256 32.6347 19.488H34.5307C34.4587 18.8 34.1787 18.248 33.6907 17.832C33.2107 17.416 32.5507 17.208 31.7107 17.208C31.1427 17.208 30.6507 17.3 30.2347 17.484C29.8267 17.668 29.5147 17.92 29.2987 18.24C29.0907 18.552 28.9867 18.9 28.9867 19.284C28.9867 19.74 29.1027 20.104 29.3347 20.376C29.5667 20.64 29.8427 20.836 30.1627 20.964C30.4827 21.084 30.8827 21.2 31.3627 21.312C31.8107 21.424 32.1347 21.528 32.3347 21.624C32.5347 21.712 32.6347 21.852 32.6347 22.044C32.6347 22.204 32.5627 22.336 32.4187 22.44C32.2827 22.536 32.0867 22.584 31.8307 22.584C31.5507 22.584 31.3147 22.512 31.1227 22.368C30.9307 22.224 30.8227 22.036 30.7987 21.804H28.7707C28.8027 22.236 28.9507 22.628 29.2147 22.98C29.4787 23.324 29.8387 23.596 30.2947 23.796Z" fill="url(#paint0_linear_1_221)"/>
<defs>
<linearGradient id="paint0_linear_1_221" x1="2.42597e-07" y1="19.8883" x2="40" y2="19.8883" gradientUnits="userSpaceOnUse">
<stop stop-color="#668DFF"/>
<stop offset="1" stop-color="#C44CFF"/>
</linearGradient>
</defs>
</svg>
