<svg width="16" height="16" viewBox="0 0 16 16" fill="none" xmlns="http://www.w3.org/2000/svg">
<path d="M7.99866 3.33334C5.27999 3.33334 2.83733 5.39534 1.42999 7.65534C1.36599 7.76134 1.33333 7.88067 1.33333 8C1.33333 8.11934 1.36533 8.23867 1.42933 8.34467C2.83733 10.6047 5.27999 12.6667 7.99866 12.6667C10.7607 12.6667 13.196 10.6067 14.5747 8.338C14.636 8.234 14.6667 8.11667 14.6667 8C14.6667 7.88334 14.636 7.766 14.5747 7.662C13.196 5.39334 10.7607 3.33334 7.99866 3.33334ZM8 5.33334C9.472 5.33334 10.6667 6.528 10.6667 8C10.6667 9.472 9.472 10.6667 8 10.6667C6.528 10.6667 5.33333 9.472 5.33333 8C5.33333 6.528 6.528 5.33334 8 5.33334ZM8 6.33334C8.92 6.33334 9.66666 7.08 9.66666 8C9.66666 8.92 8.92 9.66667 8 9.66667C7.08 9.66667 6.33333 8.92 6.33333 8C6.33333 7.08 7.08 6.33334 8 6.33334Z" fill="#D1D5E0"/>
</svg>
