<svg width="16" height="16" viewBox="0 0 24 24" fill="none" xmlns="http://www.w3.org/2000/svg">
<path d="M6.368 8.144C5.888 8.144 5.49333 8.00533 5.184 7.728C4.88533 7.44 4.736 7.088 4.736 6.672C4.736 6.24533 4.88533 5.89333 5.184 5.616C5.49333 5.328 5.888 5.184 6.368 5.184C6.83733 5.184 7.22133 5.328 7.52 5.616C7.82933 5.89333 7.984 6.24533 7.984 6.672C7.984 7.088 7.82933 7.44 7.52 7.728C7.22133 8.00533 6.83733 8.144 6.368 8.144ZM7.728 9.072V18H4.992V9.072H7.728ZM9.16675 13.52C9.16675 12.6027 9.33742 11.7973 9.67875 11.104C10.0308 10.4107 10.5054 9.87733 11.1028 9.504C11.7001 9.13067 12.3668 8.944 13.1028 8.944C13.6894 8.944 14.2228 9.06667 14.7028 9.312C15.1934 9.55733 15.5774 9.888 15.8548 10.304V6.16H18.5908V18H15.8548V16.72C15.5988 17.1467 15.2308 17.488 14.7508 17.744C14.2814 18 13.7321 18.128 13.1028 18.128C12.3668 18.128 11.7001 17.9413 11.1028 17.568C10.5054 17.184 10.0308 16.6453 9.67875 15.952C9.33742 15.248 9.16675 14.4373 9.16675 13.52ZM15.8548 13.536C15.8548 12.8533 15.6628 12.3147 15.2788 11.92C14.9054 11.5253 14.4468 11.328 13.9028 11.328C13.3588 11.328 12.8948 11.5253 12.5108 11.92C12.1374 12.304 11.9508 12.8373 11.9508 13.52C11.9508 14.2027 12.1374 14.7467 12.5108 15.152C12.8948 15.5467 13.3588 15.744 13.9028 15.744C14.4468 15.744 14.9054 15.5467 15.2788 15.152C15.6628 14.7573 15.8548 14.2187 15.8548 13.536Z" fill="#D1D5E0"/>
</svg>
