<svg width="16" height="16" viewBox="0 0 65 64" fill="none" xmlns="http://www.w3.org/2000/svg">
<g clip-path="url(#clip0_85_1038)">
<path fill-rule="evenodd" clip-rule="evenodd" d="M53.3344 19.5157C61.1456 29.1719 64.9493 40.5782 64.453 51.0157C60.8426 42.1979 55.2362 33.2604 47.8012 25.0261L45.3089 27.5104C45.0267 27.7917 44.5669 27.7917 44.2848 27.5104L36.4056 19.6615C36.1235 19.3802 36.1235 18.9219 36.4056 18.6407L38.8248 16.2292C30.3656 8.9167 21.2325 3.47399 12.277 0.1042C22.8313 -0.687467 34.4829 2.94274 44.3788 10.6927L45.4709 9.6042C45.753 9.32295 46.2128 9.32295 46.4949 9.6042L54.3741 17.4584C54.6563 17.7396 54.6563 18.1979 54.3741 18.4792L53.3344 19.5157ZM36.113 22.1407L42.4979 28.5052L8.20153 62.6927C6.44595 64.4427 3.57225 64.4427 1.81668 62.6927C0.0611071 60.9427 0.0611071 58.0782 1.81668 56.3282L36.113 22.1407Z" fill="#D1D5E0" />
</g>
<defs>
<clipPath id="clip0_85_1038">
<rect width="64" height="64" fill="white" transform="translate(0.5)"/>
</clipPath>
</defs>
</svg>
